<?xml version="1.0" standalone="no"?>
<!DOCTYPE svg PUBLIC "-//W3C//DTD SVG 20010904//EN"
 "http://www.w3.org/TR/2001/REC-SVG-20010904/DTD/svg10.dtd">
<svg version="1.0" xmlns="http://www.w3.org/2000/svg"
 width="500.000000pt" height="500.000000pt" viewBox="0 0 500.000000 500.000000"
 preserveAspectRatio="xMidYMid meet">
<metadata>
Created by potrace 1.11, written by Peter Selinger 2001-2013
</metadata>
<g transform="translate(0.000000,500.000000) scale(0.100000,-0.100000)"
fill="#000000" stroke="none">
<path d="M816 3750 c-80 -31 -132 -94 -151 -180 -4 -19 -8 -508 -8 -1085 l1
-1051 22 -52 c26 -60 73 -105 137 -133 44 -19 94 -19 1686 -19 l1642 0 50 24
c62 29 97 66 126 131 l22 50 0 1065 c0 1060 0 1065 -21 1112 -27 62 -65 101
-127 133 l-50 25 -1640 -1 c-1593 0 -1641 0 -1689 -19z m1225 -603 c308 -90
410 -485 184 -711 -266 -267 -717 -94 -731 280 -5 129 33 228 122 319 111 113
274 156 425 112z m1162 -1 c107 -31 211 -120 262 -223 34 -70 37 -82 41 -178
14 -356 -397 -568 -684 -352 -106 80 -163 190 -168 324 -5 128 35 231 123 319
115 114 273 154 426 110z m-1255 -1184 c92 -66 254 -136 367 -158 22 -5 108
-8 190 -8 177 -1 262 17 408 87 92 44 210 124 235 159 7 10 19 18 26 18 14 0
186 -167 186 -180 0 -23 -173 -155 -281 -214 -58 -32 -205 -91 -249 -101 -8
-2 -49 -11 -90 -20 -98 -23 -328 -27 -435 -9 -75 13 -195 45 -240 63 -80 33
-212 105 -275 150 -75 53 -150 120 -150 133 0 3 41 47 91 97 l91 90 40 -37
c22 -20 60 -52 86 -70z"/>
<path d="M1760 1018 c-56 -16 -123 -72 -150 -125 -23 -44 -25 -61 -28 -220
l-4 -172 59 -26 c148 -69 434 -145 609 -162 100 -10 430 -10 509 0 57 7 80 10
143 22 15 3 43 8 62 11 69 12 273 75 363 112 l92 38 2 163 c2 187 -8 228 -69
291 -79 80 -25 75 -833 77 -463 1 -732 -2 -755 -9z"/>
</g>
</svg>
