<svg xmlns="http://www.w3.org/2000/svg" viewBox="0 0 500 500">
  <style>
    .st0{fill:#87173d}.st1{fill:#fff}
  </style>
  <circle class="st0" cx="250" cy="250" r="250"/>
  <path class="st1" d="M409.1 376.9H90.9a25 25 0 0 1-25-25V148.1a25 25 0 0 1 25-25H409a25 25 0 0 1 25 25v203.7a25 25 0 0 1-24.9 25.1z"/>
  <circle class="st0" cx="192" cy="226.6" r="43.2"/>
  <circle class="st0" cx="308" cy="226.6" r="43.2"/>
  <path class="st0" d="M250 348.1a122 122 0 0 1-87-36.1l19.1-19.1a95.4 95.4 0 0 0 67.9 28.2c25.6 0 49.8-10 67.9-28.2L337 312a122.3 122.3 0 0 1-87 36.1z"/>
  <path class="st1" d="M335.6 452.7l6.1-2.7v-27.8a25 25 0 0 0-25-25H183.2a25 25 0 0 0-25 25V450l6.1 2.7c27.1 11.5 55.9 17.3 85.6 17.3s58.6-5.8 85.7-17.3z"/>
</svg>
